<svg width="24" height="24" viewBox="0 0 24 24" xmlns="http://www.w3.org/2000/svg" fill="#596977"><path d="M4.64 14.606a.75.75 0 0 1 .341-.083H17a.25.25 0 0 0 .25-.25V5a.25.25 0 0 0-.25-.25H3.769a.25.25 0 0 0-.25.25v10.18l1.12-.574zm-1.53 2.468a.75.75 0 0 1-1.091-.667V5c0-.966.783-1.75 1.75-1.75H17c.966 0 1.75.784 1.75 1.75v9.273a1.75 1.75 0 0 1-1.75 1.75H5.162L3.11 17.074zm16.292.676l1.121.574V7.654a.75.75 0 1 1 1.5 0V19.55a.75.75 0 0 1-1.092.667l-2.051-1.05H6.83a.75.75 0 1 1 0-1.5h12.23a.75.75 0 0 1 .342.082z"/></svg>