<?xml version="1.0" encoding="UTF-8"?>
<svg width="154px" height="29px" viewBox="0 0 154 29" version="1.1" xmlns="http://www.w3.org/2000/svg" xmlns:xlink="http://www.w3.org/1999/xlink">
    <!-- Generator: Sketch 47.1 (45422) - http://www.bohemiancoding.com/sketch -->
    <title>babylon-logo-purple</title>
    <desc>Created with Sketch.</desc>
    <defs></defs>
    <g id="Page-1" stroke="none" stroke-width="1" fill="none" fill-rule="evenodd">
        <g id="babylon-logo-purple" fill-rule="nonzero" fill="#9013FE">
            <path d="M107.2862,6.99320784 C107.95764,6.99320784 108.50252,7.55103137 108.50252,8.23963922 L108.50252,14.1186784 L108.50252,14.2107961 L108.50252,20.8028941 C108.50252,25.2546784 104.96892,28.8762667 100.62556,28.8762667 C98.98252,28.8762667 97.40724,28.3627961 96.07164,27.3904431 C95.5234,26.9918353 95.3946,26.2133843 95.7838,25.6515804 C96.17244,25.0909137 96.93236,24.9595608 97.47892,25.3564627 C98.4018,26.0280118 99.48988,26.3828353 100.62556,26.3828353 C103.62828,26.3828353 106.06988,23.8797373 106.06988,20.8028941 L106.06988,20.0375216 C104.65476,21.4266784 102.73676,22.2841686 100.62556,22.2841686 C96.28276,22.2841686 92.74916,18.6625804 92.74916,14.2107961 L92.74916,8.23963922 C92.74916,7.55103137 93.29348,6.99320784 93.96548,6.99320784 C94.63692,6.99320784 95.1818,7.55103137 95.1818,8.23963922 L95.1818,14.2107961 C95.1818,17.2876392 97.62396,19.7907373 100.62556,19.7907373 C103.62828,19.7907373 106.06988,17.2876392 106.06988,14.2107961 L106.06988,14.1186784 L106.06988,8.23963922 C106.06988,7.55103137 106.61476,6.99320784 107.2862,6.99320784" id="Fill-18"></path>
            <path d="M81.598384,19.5670961 C78.596784,19.5670961 76.154064,17.063998 76.154064,13.9865863 C76.154064,10.9091745 78.596784,8.40607647 81.598384,8.40607647 C84.600544,8.40607647 87.043264,10.9091745 87.043264,13.9865863 C87.043264,17.063998 84.600544,19.5670961 81.598384,19.5670961 M81.598384,5.9126451 C79.487744,5.9126451 77.570304,6.76956667 76.154064,8.15986078 L76.154064,1.24648824 C76.154064,0.557880392 75.609744,5.68627451e-05 74.937744,5.68627451e-05 C74.266304,5.68627451e-05 73.721984,0.557880392 73.721984,1.24648824 L73.721984,13.9865863 C73.721984,18.4389392 77.255024,22.0605275 81.598384,22.0605275 C85.941744,22.0605275 89.475344,18.4389392 89.475344,13.9865863 C89.475344,9.53423333 85.941744,5.9126451 81.598384,5.9126451" id="Fill-20"></path>
            <path d="M126.827176,19.5670961 C123.825016,19.5670961 121.382296,17.063998 121.382296,13.9865863 C121.382296,10.9091745 123.825016,8.40607647 126.827176,8.40607647 C129.829336,8.40607647 132.271496,10.9091745 132.271496,13.9865863 C132.271496,17.063998 129.829336,19.5670961 126.827176,19.5670961 M126.827176,5.9126451 C122.483816,5.9126451 118.950216,9.53423333 118.950216,13.9865863 C118.950216,18.4389392 122.483816,22.0605275 126.827176,22.0605275 C131.170536,22.0605275 134.703576,18.4389392 134.703576,13.9865863 C134.703576,9.53423333 131.170536,5.9126451 126.827176,5.9126451" id="Fill-22"></path>
            <path d="M62.163808,19.5670961 C59.161648,19.5670961 56.719488,17.063998 56.719488,13.9865863 C56.719488,10.9091745 59.161648,8.40607647 62.163808,8.40607647 C65.165968,8.40607647 67.608128,10.9091745 67.608128,13.9865863 C67.608128,17.063998 65.165968,19.5670961 62.163808,19.5670961 M62.163808,5.9126451 C57.820448,5.9126451 54.286848,9.53423333 54.286848,13.9865863 C54.286848,18.4389392 57.820448,22.0605275 62.163808,22.0605275 C64.274448,22.0605275 66.192448,21.2030373 67.608128,19.8127431 L67.608128,20.8135275 C67.608128,21.5021353 68.152448,22.0605275 68.824448,22.0605275 C69.495888,22.0605275 70.040208,21.5021353 70.040208,20.8135275 L70.040208,13.9865863 C70.040208,9.53423333 66.507168,5.9126451 62.163808,5.9126451" id="Fill-24"></path>
            <path d="M43.351056,19.5670961 C40.348896,19.5670961 37.906736,17.063998 37.906736,13.9865863 C37.906736,10.9091745 40.348896,8.40607647 43.351056,8.40607647 C46.352656,8.40607647 48.795376,10.9091745 48.795376,13.9865863 C48.795376,17.063998 46.352656,19.5670961 43.351056,19.5670961 M43.351056,5.9126451 C41.239856,5.9126451 39.322416,6.76956667 37.906736,8.15986078 L37.906736,1.24648824 C37.906736,0.557880392 37.362416,5.68627451e-05 36.690416,5.68627451e-05 C36.018976,5.68627451e-05 35.474096,0.557880392 35.474096,1.24648824 L35.474096,13.9865863 C35.474096,18.4389392 39.007696,22.0605275 43.351056,22.0605275 C47.694416,22.0605275 51.227456,18.4389392 51.227456,13.9865863 C51.227456,9.53423333 47.694416,5.9126451 43.351056,5.9126451" id="Fill-26"></path>
            <path d="M114.160984,-7.10542736e-15 C114.832424,-7.10542736e-15 115.377304,0.558392157 115.377304,1.247 L115.377304,20.8140392 C115.377304,21.5020784 114.832424,22.0604706 114.160984,22.0604706 C113.489544,22.0604706 112.944664,21.5020784 112.944664,20.8140392 L112.944664,1.247 C112.944664,0.558392157 113.489544,-7.10542736e-15 114.160984,-7.10542736e-15" id="Fill-28"></path>
            <path d="M145.800984,5.91258824 C150.144344,5.91258824 153.677384,9.53417647 153.677384,13.9865294 L153.677384,20.6707451 C153.677384,21.3587843 153.133064,21.9171765 152.461624,21.9171765 C151.789064,21.9171765 151.245304,21.3587843 151.245304,20.6707451 L151.245304,13.9865294 C151.245304,10.9091176 148.802584,8.40601961 145.800984,8.40601961 C142.798824,8.40601961 140.356104,10.9091176 140.356104,13.9865294 L140.356104,20.6707451 C140.356104,21.3587843 139.812344,21.9171765 139.139784,21.9171765 C138.468344,21.9171765 137.924024,21.3587843 137.924024,20.6707451 L137.924024,13.9865294 C137.924024,9.53417647 141.457064,5.91258824 145.800984,5.91258824" id="Fill-30"></path>
            <path d="M24.724504,8.86120618 C24.724504,12.1416179 22.785784,14.9125395 22.148504,15.8229121 L22.056104,15.9548336 C20.234424,18.5858728 15.359624,23.1184023 13.582744,23.1184023 C11.805304,23.1184023 6.929944,18.5858728 5.107704,15.9536964 L5.016424,15.8234807 C4.379144,14.9131081 2.440424,12.1427552 2.440424,8.86120618 C2.440424,5.88728461 4.822664,3.4677748 7.751464,3.4677748 C9.533944,3.4677748 10.805704,4.80746108 11.814264,6.11814735 C12.752824,7.33728461 13.582744,8.34659833 13.582744,8.34659833 C13.582744,8.34659833 14.412104,7.33728461 15.350664,6.11814735 C16.359224,4.80746108 17.630984,3.4677748 19.413464,3.4677748 C22.342264,3.4677748 24.724504,5.88728461 24.724504,8.86120618 M19.413464,0.990265 C17.222744,0.990265 15.079064,2.23612775 13.582744,4.35199049 C12.085864,2.23612775 9.942184,0.990265 7.751464,0.990265 C3.477544,0.990265 -5.60000002e-05,4.52144147 -5.60000002e-05,8.86120618 C-5.60000002e-05,11.5627552 1.018584,14.3876964 3.027864,17.2586964 L3.112424,17.379814 C4.270504,19.0521474 10.050264,25.5959121 13.582744,25.5959121 C17.115224,25.5959121 22.893864,19.0521474 24.052504,17.379814 L24.137064,17.2586964 C26.145784,14.3876964 27.164424,11.5627552 27.164424,8.86120618 C27.164424,4.52144147 23.687384,0.990265 19.413464,0.990265" id="Fill-32"></path>
        </g>
    </g>
</svg>